<svg xmlns="http://www.w3.org/2000/svg" viewBox="0 0 301 61.01"><defs><style>.cls-1{fill:#fff;}.cls-2{fill:#f2de3a;}</style></defs><g id="レイヤー_2" data-name="レイヤー 2"><g id="レイヤー_2-2" data-name="レイヤー 2"><path class="cls-1" d="M17.59,18.24H0V60H46.67V18.24ZM44.39,57.7H2.28V39.93H44.39Zm0-20.05H2.28V20.52H44.39Z"/><polygon class="cls-1" points="110.79 17.23 108.51 17.23 108.51 57.7 87.27 57.7 87.27 8.37 84.99 8.37 84.99 57.7 63.99 57.7 63.99 17.23 61.72 17.23 61.72 59.98 63.99 59.98 65.29 59.98 106.36 59.98 108.51 59.98 110.79 59.98 110.79 17.23"/><polygon class="cls-1" points="293.29 25.45 277.03 25.45 277.03 20.33 289.74 20.33 289.74 18.24 277.03 18.24 277.03 14.76 274.76 14.76 274.76 18.24 261.67 18.24 261.67 20.33 274.76 20.33 274.76 25.45 258.25 25.45 258.25 27.54 293.29 27.54 293.29 25.45"/><path class="cls-1" d="M301,10H250.92V60H301ZM253.19,57.7V12.23h45.53V57.7Z"/><path class="cls-1" d="M280,41.83h9.71v-10H261.48v10H280Zm-16.28-2.09V33.92h23.72v5.82Z"/><path class="cls-1" d="M205.81,43.18H186.46V20.08h19.35ZM188.65,41h15V22.26h-15Z"/><rect class="cls-1" x="195.04" y="8.37" width="2.18" height="47.59"/><rect class="cls-1" x="183.74" y="55.35" width="21.98" height="2.18" transform="translate(-7.8 65.66) rotate(-18.77)"/><rect class="cls-1" x="203.98" y="48.89" width="2.18" height="10.97" transform="translate(-5.43 80.8) rotate(-22.01)"/><rect class="cls-1" x="212.98" y="34.57" width="25.67" height="2.18"/><rect class="cls-1" x="213.17" y="42.07" width="24.24" height="2.18"/><rect class="cls-1" x="209.83" y="49.57" width="30.92" height="2.18"/><rect class="cls-1" x="224.19" y="26.95" width="2.18" height="33.03"/><polygon class="cls-1" points="208.51 35.44 207.24 33.67 232.89 15.34 225.57 10.23 209.58 22.05 208.28 20.29 225.54 7.54 236.68 15.32 208.51 35.44"/><rect class="cls-1" x="229.53" y="7.96" width="2.19" height="34.75" transform="translate(73.21 195.78) rotate(-53.55)"/><rect class="cls-1" x="123.45" y="13.63" width="50.72" height="2.18"/><rect class="cls-1" x="125.85" y="18.99" width="45.91" height="2.18"/><rect class="cls-1" x="121.93" y="24.35" width="53.75" height="2.18"/><rect class="cls-1" x="147.72" y="14.72" width="2.18" height="10.72"/><rect class="cls-1" x="132.76" y="38.47" width="32.54" height="2.18"/><rect class="cls-1" x="159.09" y="38.67" width="2.18" height="29.24" transform="translate(39.56 171.4) rotate(-62.8)"/><path class="cls-1" d="M131.67,60.64V31.37h34.72V47.7H133.85v9.93l10.86-3.52.68,2.08Zm2.18-15.12h30.36v-12H133.85Z"/><rect class="cls-1" x="119.35" y="31.22" width="24.03" height="2.18" transform="translate(5.13 80.95) rotate(-34.89)"/><rect class="cls-1" x="165.16" y="20.3" width="2.18" height="24.03" transform="matrix(0.57, -0.82, 0.82, 0.57, 44.65, 150.2)"/><rect class="cls-1" x="138.98" y="8" width="2.19" height="7.1" transform="translate(9.62 63.86) rotate(-26.57)"/><rect class="cls-1" x="154" y="10.46" width="7.1" height="2.19" transform="translate(76.76 147.3) rotate(-63.43)"/><rect class="cls-1" x="162.84" y="50.98" width="8.12" height="2.18" transform="translate(5.12 118.37) rotate(-39.61)"/><rect class="cls-1" x="147.72" y="28.43" width="2.18" height="3.89"/><rect class="cls-1" x="255.92" y="44.99" width="18.5" height="2.18" transform="translate(21.23 159.8) rotate(-34.85)"/><rect class="cls-1" x="284.54" y="36.43" width="2.18" height="21.77" transform="translate(76.05 247.07) rotate(-53.03)"/><polygon class="cls-1" points="266.63 54.23 266.63 44.31 268.81 44.31 268.81 51.31 277.8 48.68 278.41 50.78 266.63 54.23"/><rect class="cls-1" x="285.68" y="43.9" width="8.92" height="2.18" transform="translate(14.67 146.6) rotate(-29.06)"/><circle class="cls-2" cx="23.33" cy="6.81" r="6.81"/></g></g></svg>