<svg xmlns="http://www.w3.org/2000/svg" viewBox="0 0 82.74 47.29"><defs><style>.cls-1{fill:#fff;}</style></defs><g id="レイヤー_2" data-name="レイヤー 2"><g id="レイヤー_2-2" data-name="レイヤー 2"><path class="cls-1" d="M2,4.63H6.3v-4H7.83v10H6.3V6.08H2v4.6H.48V.67H2Z"/><path class="cls-1" d="M19.11,8.26H14.83l-1.09,2.42H12.09l5-10.59,4.74,10.59H20.16ZM18.5,6.83,17,3.43l-1.55,3.4Z"/><path class="cls-1" d="M27.6,4.67l3.87-4h2L29,5.21l4.55,5.47h-2L27.9,6.24l-.3.3v4.14H26.07V.67H27.6Z"/><path class="cls-1" d="M39.09.67v6a3.47,3.47,0,0,0,.32,1.72,2.19,2.19,0,0,0,3.71,0,3.47,3.47,0,0,0,.32-1.72v-6H45V7.11a3.59,3.59,0,0,1-3.71,3.77,3.59,3.59,0,0,1-3.7-3.77V.67Z"/><path class="cls-1" d="M54.69,2.89a1.72,1.72,0,0,0-.45-.63,1.63,1.63,0,0,0-1.08-.35c-.93,0-1.41.55-1.41,1.2,0,.3.11.82,1.08,1.21l1,.4c1.85.75,2.36,1.8,2.36,3A3.09,3.09,0,0,1,53,10.88a2.93,2.93,0,0,1-2.35-1,3.24,3.24,0,0,1-.84-1.95l1.52-.33a2.13,2.13,0,0,0,.42,1.28,1.58,1.58,0,0,0,1.3.59,1.6,1.6,0,0,0,1.65-1.67,1.85,1.85,0,0,0-1.44-1.71l-1-.41a2.83,2.83,0,0,1-2-2.54A2.7,2.7,0,0,1,53.14.5a3,3,0,0,1,2,.67,3.55,3.55,0,0,1,.76,1Z"/><path class="cls-1" d="M67,8.26H62.71l-1.09,2.42H60L65,.09l4.74,10.59H68Zm-.61-1.43-1.49-3.4-1.55,3.4Z"/><path class="cls-1" d="M74,10.68V0l7.26,7.6V.67h1.53V11.29l-7.26-7.6v7Z"/><path class="cls-1" d="M2,18.67a3.65,3.65,0,0,1,2.75.79,2.54,2.54,0,0,1,.8,2,2.18,2.18,0,0,1-.3,1.19,1.68,1.68,0,0,1-.75.69A2.72,2.72,0,0,1,5.79,24a2.61,2.61,0,0,1,.66,1.88,2.47,2.47,0,0,1-.66,1.8,3.9,3.9,0,0,1-2.8,1H.48v-10ZM2,23h.46a1.79,1.79,0,0,0,1.25-.39,1.54,1.54,0,0,0,.39-1.14,1.25,1.25,0,0,0-.36-1,1.62,1.62,0,0,0-1.21-.37H2Zm0,4.26h.93a2.62,2.62,0,0,0,1.52-.39A1.46,1.46,0,0,0,5,25.74a1.48,1.48,0,0,0-.41-1A2.21,2.21,0,0,0,3,24.24H2Z"/><path class="cls-1" d="M16.89,20.12h-4v2.53h3.87v1.44H12.9v3.15h4v1.44H11.37v-10h5.52Z"/><path class="cls-1" d="M27.39,20.12h-4v2.53h3.87v1.44H23.4v3.15h4v1.44H21.87v-10h5.52Z"/><path class="cls-1" d="M5.65,41.47H9.78v.08A5.45,5.45,0,0,1,8.29,45.6a4.69,4.69,0,0,1-3.4,1.28,4.32,4.32,0,0,1-3.4-1.37,5.52,5.52,0,0,1,0-7.51,5.26,5.26,0,0,1,3.76-1.5,5.46,5.46,0,0,1,2.61.62,4.59,4.59,0,0,1,1.62,1.5l-1.22.86A4.08,4.08,0,0,0,7,38.34a3.34,3.34,0,0,0-1.77-.43,3.65,3.65,0,0,0-2.64,1,4.17,4.17,0,0,0,0,5.52,3.27,3.27,0,0,0,2.51,1,3,3,0,0,0,2.23-.88,2.65,2.65,0,0,0,.84-1.7H5.65Z"/><path class="cls-1" d="M20.38,44.26H16.11L15,46.68H13.37l5-10.59,4.74,10.59H21.43Zm-.61-1.43-1.48-3.4-1.55,3.4Z"/><path class="cls-1" d="M29.13,36.67a4.54,4.54,0,0,1,2.64.59A2.8,2.8,0,0,1,33,39.62a2.75,2.75,0,0,1-2.22,2.79l3.12,4.27H32l-2.87-4.1h-.26v4.1H27.34v-10Zm-.25,4.59h.47c.42,0,2.13,0,2.13-1.63,0-1.41-1.33-1.55-2.08-1.55h-.52Z"/><path class="cls-1" d="M40.45,36.67a5.85,5.85,0,0,1,3.72,1,4.94,4.94,0,0,1,1.92,4,4.77,4.77,0,0,1-2,4,5.76,5.76,0,0,1-3.66,1H38.35v-10Zm-.57,8.57h.66a4.37,4.37,0,0,0,2.66-.7,3.55,3.55,0,0,0,1.36-2.86,3.59,3.59,0,0,0-1.35-2.88,4.46,4.46,0,0,0-2.67-.68h-.66Z"/><path class="cls-1" d="M56.53,38.12h-4v2.53h3.87v1.44H52.54v3.15h4v1.44H51v-10h5.52Z"/><path class="cls-1" d="M61.51,46.68V36l7.26,7.6V36.67H70.3V47.29L63,39.69v7Z"/></g></g></svg>