<svg xmlns="http://www.w3.org/2000/svg" viewBox="0 0 539.99 148.67"><defs><style>.cls-1{fill:#fff;}.cls-2{fill:#f2de3a;}</style></defs><g id="レイヤー_2" data-name="レイヤー 2"><g id="レイヤー_2-2" data-name="レイヤー 2"><path class="cls-1" d="M31.56,32.72H0V107.6H83.72V32.72Zm48.08,70.79H4.08V71.63H79.64Zm0-36H4.08V36.81H79.64Z"/><polygon class="cls-1" points="198.75 30.91 194.67 30.91 194.67 103.51 156.55 103.51 156.55 15.02 152.47 15.02 152.47 103.51 114.8 103.51 114.8 30.91 110.72 30.91 110.72 107.6 114.8 107.6 117.14 107.6 190.81 107.6 194.67 107.6 198.75 107.6 198.75 30.91"/><polygon class="cls-1" points="526.15 45.65 497 45.65 497 36.47 519.8 36.47 519.8 32.72 497 32.72 497 26.48 492.91 26.48 492.91 32.72 469.43 32.72 469.43 36.47 492.91 36.47 492.91 45.65 463.3 45.65 463.3 49.4 526.15 49.4 526.15 45.65"/><path class="cls-1" d="M540,17.86H450.14V107.6H540Zm-85.76,85.65V21.94h81.68v81.57Z"/><path class="cls-1" d="M502.37,75H519.8V57.11H469.09V75h33.28Zm-29.2-3.75V60.86h42.55V71.29Z"/><path class="cls-1" d="M369.23,77.46H334.51V36h34.72Zm-30.8-3.92h26.88V39.94H338.43Z"/><rect class="cls-1" x="349.91" y="15.02" width="3.92" height="85.37"/><rect class="cls-1" x="329.64" y="99.29" width="39.43" height="3.92" transform="translate(-14 117.79) rotate(-18.77)"/><rect class="cls-1" x="365.93" y="87.71" width="3.92" height="19.68" transform="translate(-9.75 144.96) rotate(-22.01)"/><rect class="cls-1" x="382.09" y="62.03" width="46.05" height="3.92"/><rect class="cls-1" x="382.42" y="75.48" width="43.49" height="3.92"/><rect class="cls-1" x="376.43" y="88.94" width="55.48" height="3.92"/><rect class="cls-1" x="402.2" y="48.34" width="3.92" height="59.25"/><polygon class="cls-1" points="374.06 63.59 371.79 60.4 417.81 27.52 404.68 18.36 375.98 39.56 373.65 36.41 404.61 13.54 424.6 27.48 374.06 63.59"/><rect class="cls-1" x="411.78" y="14.29" width="3.92" height="62.35" transform="translate(131.33 351.23) rotate(-53.55)"/><rect class="cls-1" x="221.47" y="24.45" width="90.98" height="3.92"/><rect class="cls-1" x="225.78" y="34.07" width="82.36" height="3.92"/><rect class="cls-1" x="218.75" y="43.69" width="96.43" height="3.92"/><rect class="cls-1" x="265" y="26.41" width="3.92" height="19.24"/><rect class="cls-1" x="238.17" y="69.01" width="58.37" height="3.92"/><rect class="cls-1" x="285.41" y="69.37" width="3.92" height="52.46" transform="translate(70.98 307.49) rotate(-62.8)"/><path class="cls-1" d="M236.21,108.78V56.28H298.5V85.57H240.13v17.82l19.49-6.31,1.2,3.73Zm3.92-27.13h54.46V60.2H240.13Z"/><rect class="cls-1" x="214.11" y="56.02" width="43.12" height="3.92" transform="translate(9.19 145.22) rotate(-34.89)"/><rect class="cls-1" x="296.29" y="36.42" width="3.92" height="43.12" transform="translate(80.1 269.46) rotate(-55.11)"/><rect class="cls-1" x="249.32" y="14.35" width="3.92" height="12.73" transform="translate(17.26 114.57) rotate(-26.57)"/><rect class="cls-1" x="276.28" y="18.76" width="12.73" height="3.92" transform="translate(137.71 264.25) rotate(-63.43)"/><rect class="cls-1" x="292.13" y="91.46" width="14.57" height="3.92" transform="translate(9.18 212.35) rotate(-39.61)"/><rect class="cls-1" x="265" y="51" width="3.92" height="6.98"/><rect class="cls-1" x="459.12" y="80.71" width="33.18" height="3.92" transform="translate(38.08 286.68) rotate(-34.85)"/><rect class="cls-1" x="510.47" y="65.36" width="3.92" height="39.06" transform="translate(136.44 443.25) rotate(-53.03)"/><polygon class="cls-1" points="478.33 97.29 478.33 79.49 482.25 79.49 482.25 92.06 498.37 87.34 499.47 91.1 478.33 97.29"/><rect class="cls-1" x="512.51" y="78.75" width="16.01" height="3.92" transform="translate(26.33 263) rotate(-29.06)"/><circle class="cls-2" cx="41.86" cy="12.23" r="12.23"/><path class="cls-1" d="M114.34,139.83H120v-5.25h2v13.27h-2v-6.11h-5.69v6.11h-2V134.58h2Z"/><path class="cls-1" d="M140,144.65h-5.67l-1.45,3.2h-2.19l6.61-14,6.29,14H141.4Zm-.81-1.91-2-4.5-2.05,4.5Z"/><path class="cls-1" d="M154.25,139.87l5.13-5.29h2.67l-6,6,6,7.26h-2.71L154.65,142l-.4.4v5.49h-2V134.58h2Z"/><path class="cls-1" d="M172.47,134.58v8a4.64,4.64,0,0,0,.42,2.29,2.9,2.9,0,0,0,4.93,0,4.64,4.64,0,0,0,.42-2.29v-8h2v8.53a5,5,0,0,1-1.23,3.45,5.14,5.14,0,0,1-7.36,0,4.91,4.91,0,0,1-1.24-3.45v-8.53Z"/><path class="cls-1" d="M196.15,137.52a2.09,2.09,0,0,0-.6-.83,2.12,2.12,0,0,0-1.43-.48,1.64,1.64,0,0,0-1.87,1.59c0,.4.13,1.1,1.43,1.61L195,140c2.45,1,3.12,2.39,3.12,3.9a4.09,4.09,0,0,1-4.27,4.26,3.91,3.91,0,0,1-3.13-1.33,4.36,4.36,0,0,1-1.11-2.59l2-.44a2.85,2.85,0,0,0,.56,1.69,2.07,2.07,0,0,0,1.73.8,2.14,2.14,0,0,0,2.19-2.23c0-1.35-1-1.91-1.92-2.27l-1.27-.54a3.73,3.73,0,0,1-2.7-3.36,3.58,3.58,0,0,1,3.88-3.5,4,4,0,0,1,2.66.89,4.54,4.54,0,0,1,1,1.34Z"/><path class="cls-1" d="M215.44,144.65h-5.67l-1.45,3.2h-2.19l6.61-14,6.28,14h-2.19Zm-.81-1.91-2-4.5-2,4.5Z"/><path class="cls-1" d="M227.66,147.85V133.68l9.63,10.09v-9.19h2v14.09l-9.63-10.09v9.27Z"/><path class="cls-1" d="M263.07,134.58c1.71,0,2.78.22,3.66,1a3.43,3.43,0,0,1,1,2.63,2.88,2.88,0,0,1-.4,1.57,2.15,2.15,0,0,1-1,.92,3.69,3.69,0,0,1,1.71,1,3.45,3.45,0,0,1,.88,2.49,3.25,3.25,0,0,1-.88,2.39,5.16,5.16,0,0,1-3.72,1.29h-3.32V134.58Zm0,5.71h.61a2.31,2.31,0,0,0,1.65-.52,2,2,0,0,0,.52-1.51,1.62,1.62,0,0,0-.48-1.27,2.15,2.15,0,0,0-1.61-.5h-.69Zm0,5.65h1.23a3.49,3.49,0,0,0,2-.52A1.89,1.89,0,0,0,267,144a2,2,0,0,0-.54-1.39,2.9,2.9,0,0,0-2.09-.6h-1.27Z"/><path class="cls-1" d="M285.81,136.49h-5.3v3.36h5.14v1.91h-5.14v4.18h5.3v1.91h-7.33V134.58h7.33Z"/><path class="cls-1" d="M302.71,136.49h-5.29v3.36h5.14v1.91h-5.14v4.18h5.29v1.91h-7.32V134.58h7.32Z"/><path class="cls-1" d="M330.76,141h5.48v.1a7.28,7.28,0,0,1-2,5.37,6.24,6.24,0,0,1-4.52,1.69,5.81,5.81,0,0,1-4.52-1.81,7.06,7.06,0,0,1,8.42-11.12,6.08,6.08,0,0,1,2.15,2l-1.61,1.14a5.36,5.36,0,0,0-1.63-1.51,4.48,4.48,0,0,0-2.35-.58,4.8,4.8,0,0,0-3.5,1.37,5.5,5.5,0,0,0,0,7.33,4.32,4.32,0,0,0,3.32,1.33,4,4,0,0,0,3-1.18,3.53,3.53,0,0,0,1.12-2.24h-3.31Z"/><path class="cls-1" d="M353.28,144.65h-5.67l-1.45,3.2H344l6.61-14,6.29,14h-2.19Zm-.81-1.91-2-4.5-2.05,4.5Z"/><path class="cls-1" d="M367.87,134.58a6,6,0,0,1,3.5.77,3.72,3.72,0,0,1,1.57,3.13,3.64,3.64,0,0,1-2.95,3.7l4.14,5.67h-2.44l-3.8-5.43h-.36v5.43h-2V134.58Zm-.34,6.09h.63c.56,0,2.83-.06,2.83-2.17,0-1.87-1.77-2.05-2.77-2.05h-.69Z"/><path class="cls-1" d="M385.87,134.58a7.74,7.74,0,0,1,4.93,1.29,6.56,6.56,0,0,1,2.55,5.35,6.33,6.33,0,0,1-2.67,5.36,7.62,7.62,0,0,1-4.85,1.27h-2.75V134.58Zm-.76,11.36H386a5.72,5.72,0,0,0,3.52-.94,4.66,4.66,0,0,0,1.81-3.78,4.75,4.75,0,0,0-1.79-3.82,6,6,0,0,0-3.54-.91h-.88Z"/><path class="cls-1" d="M410.18,136.49h-5.29v3.36H410v1.91h-5.13v4.18h5.29v1.91h-7.32V134.58h7.32Z"/><path class="cls-1" d="M419.77,147.85V133.68l9.63,10.09v-9.19h2v14.09l-9.63-10.09v9.27Z"/></g></g></svg>