<svg xmlns="http://www.w3.org/2000/svg" xmlns:xlink="http://www.w3.org/1999/xlink" viewBox="0 0 200 217.96"><defs><style>.cls-1{fill:url(#名称未設定グラデーション_5);}</style><linearGradient id="名称未設定グラデーション_5" x1="100" y1="217.96" x2="100" gradientUnits="userSpaceOnUse"><stop offset="0" stop-color="#313cff"/><stop offset="1" stop-color="#6e30ff"/></linearGradient></defs><g id="レイヤー_2" data-name="レイヤー 2"><g id="レイヤー_3" data-name="レイヤー 3"><path class="cls-1" d="M43,218h0A42.87,42.87,0,0,1,.1,175.09V69.22A42.87,42.87,0,0,1,43,26.35h0A42.87,42.87,0,0,1,85.84,69.22V175.09A42.87,42.87,0,0,1,43,218ZM199.71,77.8h0a51.44,51.44,0,0,0-51.45-51.45h0A51.45,51.45,0,0,0,96.81,77.8h0a51.46,51.46,0,0,0,51.45,51.45h0A51.45,51.45,0,0,0,199.71,77.8ZM200,0H0V12H200Z"/></g></g></svg>